#!OML:ASF H:\MichaelJackson\Top Level 1\Subject 1\Session 1\male.ASF
:FULLY-SPECIFIED
:DEGREES
663
root 4.56621 17.2389 -5.59245 11.8979 8.86396 -9.11179
lowerback 0.926592 2.1381 5.23539
upperback 4.25715 2.60497 6.44883
thorax 3.83007 1.35997 3.82995
lowerneck -11.4386 -5.39219 0.348253
upperneck 36.9192 -7.35657 -1.67763
head 14.5338 -3.23079 -1.84897
rclavicle -1.59028e-015 -3.65764e-014
rhumerus -16.0313 37.7429 -83.2228
rradius 133.888
rwrist -18.2189
rhand -46.5028 -61.9892
rfingers 7.12502
rthumb -19.2293 -268.941
lclavicle -1.59028e-015 -3.65764e-014
lhumerus -62.1456 -7.31975 96.1525
lradius 50.9726
lwrist 10.2607
lhand -7.05648 9.29
lfingers 7.12502
lthumb 18.8165 38.3999
rfemur -20.9945 -9.04236 33.3058
rtibia 37.2224
rfoot -6.8487 10.9339
rtoes 35.4159
lfemur -42.6564 -10.3828 -7.91649
ltibia 59.7508
lfoot -0.0362443 1.30055
ltoes 37.8374
664
root 4.57522 17.2746 -5.54435 12.1276 8.5376 -8.83112
lowerback 0.814869 2.10352 4.96513
upperback 4.28812 2.55139 6.34631
thorax 3.91802 1.32619 3.87764
lowerneck -11.4883 -5.27763 0.336403
upperneck 36.921 -7.16197 -1.74975
head 14.5455 -3.16053 -1.84973
rclavicle -3.57812e-015 -7.15625e-014
rhumerus -15.7394 37.8411 -83.0574
rradius 133.809
rwrist -18.3668
rhand -46.4926 -62.092
rfingers 7.12502
rthumb -19.2194 -268.838
lclavicle -3.57812e-015 -7.15625e-014
lhumerus -62.0594 -7.36557 95.9688
lradius 51.0457
lwrist 10.3594
lhand -7.88516 8.86733
lfingers 7.12502
lthumb 18.0193 38.0526
rfemur -21.1149 -8.90051 32.9479
rtibia 37.2634
rfoot -6.0313 10.952
rtoes 35.2398
lfemur -42.2061 -10.5447 -8.14653
ltibia 59.0736
lfoot -0.0374409 1.4894
ltoes 37.5655
665
root 4.58563 17.3092 -5.49428 12.3684 8.31085 -8.57349
lowerback 0.644719 2.04571 4.76002
upperback 4.30124 2.4629 6.24634
thorax 4.02497 1.27702 3.89281
lowerneck -11.5408 -5.16635 0.332567
upperneck 36.9668 -6.98252 -1.8024
head 14.5793 -3.09167 -1.84783
rclavicle 3.97569e-015 -3.26007e-014
rhumerus -15.5171 37.9144 -82.9412
rradius 133.749
rwrist -18.556
rhand -46.4875 -62.2298
rfingers 7.12502
rthumb -19.2146 -268.699
lclavicle 3.97569e-015 -3.26007e-014
lhumerus -61.985 -7.42458 95.7428
lradius 51.0648
lwrist 10.0477
lhand -8.26241 8.39065
lfingers 7.12502
lthumb 17.6563 37.609
rfemur -21.2057 -8.81371 32.617
rtibia 37.2173
rfoot -5.26819 10.9796
rtoes 35.1105
lfemur -41.8716 -10.707 -8.38442
ltibia 58.4942
lfoot 0.0784656 1.72074
ltoes 37.3456
666
root 4.59731 17.3428 -5.44251 12.606 8.19271 -8.35616
lowerback 0.438817 1.96684 4.63693
upperback 4.29494 2.34391 6.15631
thorax 4.13665 1.21521 3.87236
lowerneck -11.5944 -5.06586 0.335151
upperneck 37.0501 -6.82658 -1.8408
head 14.6315 -3.02892 -1.84603
rclavicle 5.24792e-014 4.05521e-014
rhumerus -15.3805 37.9729 -82.8719
rradius 133.712
rwrist -18.7445
rhand -46.4914 -62.3925
rfingers 7.12502
rthumb -19.2183 -268.537
lclavicle 5.24792e-014 4.05521e-014
lhumerus -61.917 -7.49129 95.4708
lradius 51.0407
lwrist 9.43207
lhand -8.21612 7.91231
lfingers 7.12502
lthumb 17.7009 37.1266
rfemur -21.2476 -8.81937 32.3339
rtibia 37.0715
rfoot -4.55003 11.0399
rtoes 35.0456
lfemur -41.6568 -10.8479 -8.61489
ltibia 58.0358
lfoot 0.338582 1.96726
ltoes 37.2538
667
root 4.6099 17.3754 -5.38932 12.8295 8.15999 -8.18954
lowerback 0.215384 1.87895 4.59803
upperback 4.27257 2.2112 6.07915
thorax 4.24533 1.14925 3.81758
lowerneck -11.6444 -4.98122 0.338154
upperneck 37.1528 -6.69979 -1.8638
head 14.6927 -2.97583 -1.84282
rclavicle -1.19271e-015 -2.70347e-014
rhumerus -15.3323 38.0305 -82.8395
rradius 133.7
rwrist -18.8818
rhand -46.5082 -62.5503
rfingers 7.12502
rthumb -19.2344 -268.381
lclavicle -1.19271e-015 -2.70347e-014
lhumerus -61.8545 -7.5651 95.1609
lradius 50.9959
lwrist 8.67131
lhand -7.84763 7.49779
lfingers 7.12502
lthumb 18.0554 36.6797
rfemur -21.2299 -8.92275 32.1095
rtibia 36.8237
rfoot -3.86402 11.1464
rtoes 34.9621
lfemur -41.5546 -10.9228 -8.83317
ltibia 57.7122
lfoot 0.753257 2.19575
ltoes 37.3611
668
root 4.62305 17.4073 -5.33527 13.0275 8.17823 -8.0732
lowerback -0.00362627 1.79534 4.63166
upperback 4.2378 2.08378 6.01425
thorax 4.34081 1.08829 3.734
lowerneck -11.6782 -4.91726 0.335246
upperneck 37.2535 -6.6064 -1.87252
head 14.7499 -2.93586 -1.83697
rclavicle -1.90833e-014 -4.6118e-014
rhumerus -15.3639 38.0951 -82.8312
rradius 133.708
rwrist -18.9379
rhand -46.539 -62.6751
rfingers 7.12502
rthumb -19.2641 -268.259
lclavicle -1.90833e-014 -4.6118e-014
lhumerus -61.8015 -7.65455 94.8334
lradius 50.9515
lwrist 7.95057
lhand -7.29319 7.21563
lfingers 7.12502
lthumb 18.5888 36.3475
rfemur -21.1435 -9.11652 31.9412
rtibia 36.4777
rfoot -3.1842 11.3049
rtoes 34.8643
lfemur -41.5477 -10.8943 -9.0451
ltibia 57.5279
lfoot 1.3337 2.38076
ltoes 37.6684
669
root 4.63604 17.4388 -5.28028 13.1786 8.22404 -7.99121
lowerback -0.19609 1.72245 4.70718
upperback 4.20153 1.97175 5.95813
thorax 4.42023 1.03641 3.63509
lowerneck -11.7 -4.87395 0.32747
upperneck 37.3434 -6.54438 -1.87274
head 14.7996 -2.90893 -1.83058
rclavicle -2.38542e-015 -4.29375e-014
rhumerus -15.4593 38.1723 -82.8352
rradius 133.733
rwrist -18.8967
rhand -46.5827 -62.7352
rfingers 7.12502
rthumb -19.306 -268.203
lclavicle -2.38542e-015 -4.29375e-014
lhumerus -61.7568 -7.7693 94.5101
lradius 50.921
lwrist 7.42616
lhand -6.68996 7.10757
lfingers 7.12502
lthumb 19.169 36.1829
rfemur -20.9646 -9.38998 31.8101
rtibia 36.0423
rfoot -2.5129 11.5047
rtoes 34.7216
lfemur -41.5992 -10.7499 -9.26715
ltibia 57.4761
lfoot 2.07515 2.5069
ltoes 38.1515
670
root 4.64856 17.4703 -5.22453 13.2751 8.26839 -7.92632
lowerback -0.346787 1.66565 4.7985
upperback 4.16708 1.8841 5.90369
thorax 4.47724 0.997228 3.52804
lowerneck -11.7008 -4.84864 0.314153
upperneck 37.4165 -6.50842 -1.86719
head 14.8365 -2.89348 -1.82333
rclavicle 5.1684e-015 4.21423e-014
rhumerus -15.6039 38.2622 -82.851
rradius 133.766
rwrist -18.7685
rhand -46.6362 -62.7249
rfingers 7.12502
rthumb -19.3575 -268.219
lclavicle 5.1684e-015 4.21423e-014
lhumerus -61.7314 -7.9136 94.2089
lradius 50.9173
lwrist 7.19606
lhand -6.17142 7.19288
lfingers 7.12502
lthumb 19.6676 36.218
rfemur -20.6697 -9.71789 31.6923
rtibia 35.4932
rfoot -1.82826 11.737
rtoes 34.5134
lfemur -41.6756 -10.4805 -9.51603
ltibia 57.5233
lfoot 2.98602 2.56923
ltoes 38.7915
671
root 4.66045 17.5018 -5.16818 13.316 8.28608 -7.86028
lowerback -0.449593 1.62853 4.88181
upperback 4.13778 1.82695 5.84204
thorax 4.51118 0.973035 3.41725
lowerneck -11.6834 -4.83703 0.299664
upperneck 37.4758 -6.49217 -1.85949
head 14.8625 -2.88664 -1.81675
rclavicle -6.36111e-015 -3.10104e-014
rhumerus -15.7871 38.3562 -82.8839
rradius 133.799
rwrist -18.5831
rhand -46.686 -62.6373
rfingers 7.12502
rthumb -19.4054 -268.311
lclavicle -6.36111e-015 -3.10104e-014
lhumerus -61.7253 -8.08691 93.9343
lradius 50.9379
lwrist 7.27945
lhand -5.81003 7.45821
lfingers 7.12502
lthumb 20.015 36.4474
rfemur -20.2742 -10.0612 31.5609
rtibia 34.8792
rfoot -1.14657 11.9874
rtoes 34.262
lfemur -41.7641 -10.0885 -9.80533
ltibia 57.6699
lfoot 4.0387 2.56302
ltoes 39.5552
672
root 4.67139 17.5413 -5.11017 13.3049 8.26394 -7.75792
lowerback -0.504044 1.60868 4.91837
upperback 4.11483 1.7987 5.75961
thorax 4.52218 0.961855 3.31019
lowerneck -11.6506 -4.83431 0.290212
upperneck 37.5319 -6.49005 -1.85135
head 14.8829 -2.88518 -1.81226
rclavicle 2.34566e-014 2.70347e-014
rhumerus -16.0001 38.44 -82.9458
rradius 133.823
rwrist -18.3745
rhand -46.722 -62.489
rfingers 7.12502
rthumb -19.44 -268.463
lclavicle 2.34566e-014 2.70347e-014
lhumerus -61.7409 -8.28359 93.6813
lradius 50.9748
lwrist 7.62576
lhand -5.64061 7.84344
lfingers 7.12502
lthumb 20.1778 36.8155
rfemur -19.7683 -10.3825 31.3729
rtibia 34.2045
rfoot -0.472265 12.2305
rtoes 33.9839
lfemur -41.8153 -9.59537 -10.1622
ltibia 57.8658
lfoot 5.20076 2.49097
ltoes 40.437
